# This file uses centimeters as units for non-parametric coordinates.

mtllib Cards.mtl
g default
v -0.177367 6.582698 1.366514
v 0.173830 6.582698 2.244554
v -0.177367 6.592210 1.366514
v 0.173830 6.592210 2.244554
v 0.403101 6.592210 1.134339
v 0.754298 6.592210 2.012379
v 0.403101 6.582698 1.134339
v 0.754298 6.582698 2.012379
vt 0.001891 0.668528
vt 0.331370 0.668528
vt 0.331370 0.998008
vt 0.001891 0.998008
vt 0.338705 0.668528
vt 0.668185 0.668528
vt 0.668185 0.998008
vt 0.338705 0.998008
vt 0.338705 0.001992
vt 0.668185 0.001992
vt 0.668185 0.331472
vt 0.338705 0.331472
vt 0.282356 0.335260
vt 0.611836 0.335260
vt 0.611836 0.664740
vt 0.282356 0.664740
vt 0.001891 0.001992
vt 0.331370 0.001992
vt 0.331370 0.331472
vt 0.001891 0.331472
vt 0.617659 0.335260
vt 0.947139 0.335260
vt 0.947139 0.664740
vt 0.617659 0.664740
vn -0.928484 0.000000 0.371373
vn -0.928484 0.000000 0.371373
vn -0.928484 0.000000 0.371373
vn -0.928484 0.000000 0.371373
vn 0.000000 1.000000 0.000000
vn 0.000000 1.000000 0.000000
vn 0.000000 1.000000 0.000000
vn 0.000000 1.000000 0.000000
vn 0.928484 0.000000 -0.371373
vn 0.928484 0.000000 -0.371373
vn 0.928484 0.000000 -0.371373
vn 0.928484 0.000000 -0.371373
vn 0.000000 -1.000000 0.000000
vn 0.000000 -1.000000 0.000000
vn 0.000000 -1.000000 0.000000
vn 0.000000 -1.000000 0.000000
vn 0.371373 0.000000 0.928484
vn 0.371373 0.000000 0.928484
vn 0.371373 0.000000 0.928484
vn 0.371373 0.000000 0.928484
vn -0.371373 0.000000 -0.928484
vn -0.371373 0.000000 -0.928484
vn -0.371373 0.000000 -0.928484
vn -0.371373 0.000000 -0.928484
s off
g pCube1
usemtl initialShadingGroup
f 1/17/1 2/18/2 4/19/3 3/20/4
f 3/9/5 4/10/6 6/11/7 5/12/8
f 5/21/9 6/22/10 8/23/11 7/24/12
f 7/13/13 8/14/14 2/15/15 1/16/16
f 2/1/17 8/2/18 6/3/19 4/4/20
f 7/5/21 1/6/22 3/7/23 5/8/24
