# This file uses centimeters as units for non-parametric coordinates.

mtllib DoorUV.mtl
g default
v 6.150981 3.330264 2.073766
v 6.150981 3.330264 -2.073766
v 6.150981 11.780701 2.073766
v 6.150981 11.780701 -2.073766
v 5.406283 11.780701 2.073766
v 5.406283 11.780701 -2.073766
v 5.406283 3.330264 2.073766
v 5.406283 3.330264 -2.073766
v 6.150981 7.555482 -2.073766
v 6.150981 7.555482 2.073766
v 5.406283 7.555482 2.073766
v 5.406283 7.555482 -2.073766
v 6.150981 8.255178 -1.386935
v 6.150981 8.255178 1.386935
v 6.150981 11.081005 -1.386935
v 6.150981 11.081005 1.386935
v 6.193358 12.366325 2.564707
v 6.193358 12.366325 -2.564707
v 5.363906 12.366325 -2.564707
v 5.363906 12.366325 2.564707
v 5.363906 2.744638 2.564707
v 5.363906 2.744638 -2.564707
v 6.193358 2.744638 -2.564707
v 6.193358 2.744638 2.564707
v 5.363906 7.555482 -2.564707
v 6.193358 7.555482 -2.564707
v 6.193358 7.555482 2.564707
v 5.363906 7.555482 2.564707
v 6.352481 11.774966 2.069651
v 6.352481 11.774966 -2.069651
v 6.394858 12.360592 -2.560592
v 6.394858 12.360592 2.560592
v 6.352481 3.335998 2.069651
v 6.352481 3.335998 -2.069651
v 6.394858 2.750372 2.560592
v 6.394858 2.750372 -2.560592
v 6.352511 7.555482 -2.065536
v 6.394889 7.555482 -2.556478
v 6.352511 7.555482 2.065536
v 6.394889 7.555482 2.556478
v 6.394858 2.750372 2.048474
v 6.394858 2.750372 -2.073926
v 6.234416 3.329278 2.069651
v 6.234416 3.329278 -2.069651
v 6.276793 2.743652 2.048474
v 6.276793 2.743651 -2.073926
v 6.054726 8.255178 -1.386935
v 6.054726 11.081005 -1.386935
v 6.054726 11.081005 1.386935
v 6.054726 8.255178 1.386935
vt 0.300635 0.001992
vt 0.346208 0.001992
vt 0.346208 0.266316
vt 0.300635 0.266316
vt 0.346208 0.530640
vt 0.300635 0.530640
vt 0.289563 0.266316
vt 0.289564 0.002307
vt 0.289564 0.530324
vt 0.352856 0.001992
vt 0.398429 0.001992
vt 0.398429 0.266316
vt 0.352856 0.266316
vt 0.409500 0.002307
vt 0.409502 0.266316
vt 0.398429 0.530640
vt 0.352856 0.530640
vt 0.409500 0.530324
vt 0.893138 0.281862
vt 0.893138 0.021629
vt 0.896694 0.021629
vt 0.896694 0.281862
vt 0.893138 0.543299
vt 0.896694 0.543299
vt 0.626689 0.021629
vt 0.626689 0.281862
vt 0.610163 0.281862
vt 0.610163 0.021629
vt 0.626689 0.543299
vt 0.610163 0.543299
vt 0.610163 -0.012928
vt 0.610163 -0.012928
vt 0.610163 0.014857
vt 0.923320 -0.013383
vt 0.894399 0.014326
vt 0.919029 -0.018449
vt 0.328146 0.627552
vt 0.328146 0.790235
vt 0.322605 0.790235
vt 0.322605 0.627552
vt 0.157372 0.790235
vt 0.157372 0.627552
vt 0.162913 0.627552
vt 0.162913 0.790235
vt 0.588660 0.603589
vt 0.893138 0.603589
vt 0.893138 0.654957
vt 0.588660 0.654957
vt 0.588660 0.591105
vt 0.893138 0.591105
vt 0.577308 0.864117
vt 0.859130 0.864119
vt 0.859130 0.909691
vt 0.577308 0.909689
vt 0.832165 0.914275
vt 0.605671 0.914274
vt 0.858905 0.920766
vt 0.832167 0.920772
vt 0.605669 0.920771
vt 0.577532 0.920764
vt 0.893138 0.555800
vt 0.626689 0.555800
vt 0.350743 0.888917
vt 0.101835 0.888917
vt 0.101835 0.883892
vt 0.350743 0.883892
vt 0.322605 0.795776
vt 0.162913 0.795776
vt 0.162913 0.622011
vt 0.322605 0.622011
vt 0.839057 0.326038
vt 0.668700 0.326038
vt 0.839057 0.500536
vt 0.668700 0.500536
vt 0.028822 0.266316
vt 0.256701 0.266316
vt 0.256701 0.498463
vt 0.028822 0.498463
vt 0.028822 0.034168
vt 0.256701 0.034168
vt 0.283675 0.266316
vt 0.283675 0.530639
vt 0.001848 0.530639
vt 0.001848 0.266316
vt 0.001848 0.001992
vt 0.283675 0.001992
vt 0.927721 0.583933
vt 0.927721 0.281862
vt 0.583712 0.281862
vt 0.927721 -0.003565
vt 0.583712 -0.012928
vt 0.101835 0.848532
vt 0.350743 0.848532
vt 0.583712 0.568387
vn 1.000000 0.000000 0.000000
vn 1.000000 0.000000 0.000000
vn 1.000000 0.000000 -0.000000
vn 1.000000 0.000000 -0.000000
vn 0.005500 0.999985 0.000000
vn 0.005500 0.999985 0.000000
vn 0.000000 1.000000 0.000000
vn 0.000000 1.000000 0.000000
vn -1.000000 0.000000 -0.000000
vn -1.000000 0.000000 -0.000000
vn -1.000000 0.000000 -0.000000
vn -1.000000 0.000000 -0.000000
vn 0.000000 -1.000000 0.000000
vn 0.000000 -1.000000 0.000000
vn 0.000000 -1.000000 0.000000
vn 0.000000 -1.000000 0.000000
vn 0.005895 0.000082 -0.999983
vn 0.000000 0.000000 -1.000000
vn 0.000000 0.000000 -1.000000
vn 0.005982 0.000000 -0.999982
vn -0.000000 0.000000 1.000000
vn 0.005895 0.000082 0.999983
vn 0.005982 0.000000 0.999982
vn -0.000000 0.000000 1.000000
vn 0.005895 -0.000082 0.999983
vn -0.000000 0.000000 1.000000
vn 0.000000 0.000000 -1.000000
vn 0.005895 -0.000082 -0.999983
vn 1.000000 0.000000 -0.000000
vn 1.000000 0.000000 -0.000000
vn 1.000000 0.000000 -0.000000
vn 1.000000 0.000000 -0.000000
vn 1.000000 0.000000 -0.000000
vn 1.000000 0.000000 -0.000000
vn 0.997392 -0.072174 0.000000
vn 0.997392 -0.072174 0.000000
vn 0.997392 -0.072174 0.000000
vn 0.997392 -0.072174 0.000000
vn -0.997392 -0.072174 -0.000000
vn -0.997392 -0.072174 -0.000000
vn -0.997392 -0.072174 -0.000000
vn -0.997392 -0.072174 -0.000000
vn -0.997392 0.072174 -0.000000
vn -0.997392 0.072174 -0.000000
vn -0.997392 0.072174 -0.000000
vn -0.997392 0.072174 -0.000000
vn 0.997392 0.072174 0.000000
vn 0.997392 0.072174 0.000000
vn 0.997392 0.072174 0.000000
vn -0.996295 0.000000 0.085999
vn -0.996295 0.000000 0.085999
vn -0.996295 0.000000 0.085999
vn -0.996295 0.000000 0.085999
vn 0.996291 -0.000085 0.086049
vn 0.996291 -0.000085 0.086049
vn 0.996291 -0.000085 0.086049
vn 0.996291 -0.000085 0.086049
vn 0.996291 -0.000085 -0.086049
vn 0.996291 -0.000085 -0.086049
vn 0.996291 -0.000085 -0.086049
vn 0.996291 -0.000085 -0.086049
vn -0.996295 0.000000 -0.085999
vn -0.996295 0.000000 -0.085999
vn -0.996295 0.000000 -0.085999
vn -0.996295 0.000000 -0.085999
vn 0.996291 0.000085 -0.086049
vn 0.996291 0.000085 -0.086049
vn 0.996291 0.000085 -0.086049
vn 0.996291 0.000085 -0.086049
vn -0.996295 0.000000 -0.085999
vn -0.996295 0.000000 -0.085999
vn -0.996295 0.000000 -0.085999
vn -0.996295 0.000000 -0.085999
vn -0.996295 0.000000 0.085999
vn -0.996295 0.000000 0.085999
vn -0.996295 0.000000 0.085999
vn -0.996295 0.000000 0.085999
vn 0.996291 0.000085 0.086049
vn 0.996291 0.000085 0.086049
vn 0.996291 0.000085 0.086049
vn 0.996291 0.000085 0.086049
vn -0.028445 -0.999595 -0.000000
vn -0.028445 -0.999595 -0.000000
vn -0.028445 -0.999595 -0.000000
vn -0.028445 -0.999595 -0.000000
vn 0.028444 0.999595 0.000000
vn 0.028444 0.999595 0.000000
vn -0.030606 0.000000 0.999532
vn -0.030606 -0.000487 0.999531
vn -0.030606 -0.000487 0.999531
vn -0.030606 0.000000 0.999532
vn 0.030605 -0.000000 -0.999532
vn 0.030605 0.000428 -0.999531
vn -0.030606 -0.000487 -0.999531
vn -0.030606 0.000000 -0.999532
vn -0.030606 0.000000 -0.999532
vn -0.030606 -0.000487 -0.999531
vn 0.030605 0.000428 0.999531
vn 0.030605 0.000000 0.999532
vn -0.030606 0.000487 -0.999531
vn -0.030606 0.000487 -0.999531
vn 0.030605 -0.000428 0.999532
vn -0.030606 0.000487 0.999531
vn -0.030606 0.000487 0.999531
vn 0.030605 -0.000428 -0.999531
vn 0.997392 0.072174 -0.000000
vn 0.997392 0.072174 -0.000000
vn 0.997392 0.072174 -0.000000
vn 0.997392 0.072174 0.000000
vn 0.997392 0.072174 0.000000
vn 0.997392 0.072174 0.000000
vn 0.997392 0.072174 0.000000
vn -0.002049 0.035990 -0.999350
vn -0.002049 0.035990 -0.999350
vn -0.002049 0.035990 -0.999350
vn -0.002049 0.035990 -0.999350
vn 0.000414 -0.007270 0.999974
vn 0.000414 -0.007270 0.999973
vn 0.000414 -0.007270 0.999974
vn 0.000414 -0.007270 0.999973
vn 0.011828 0.999930 0.000000
vn 0.011828 0.999930 0.000000
vn 0.011828 0.999930 0.000000
vn 0.011828 0.999930 0.000000
vn -0.011812 -0.999930 0.000000
vn -0.011812 -0.999930 0.000000
vn -0.011812 -0.999930 0.000000
vn -0.011812 -0.999930 0.000000
vn 0.038999 -0.999231 0.004122
vn 0.038999 -0.999231 0.004122
vn 0.038999 -0.999231 0.004122
vn 0.038999 -0.999231 0.004122
vn 0.038998 -0.999230 -0.004338
vn 0.038998 -0.999230 -0.004338
vn 0.038998 -0.999230 -0.004338
vn 0.038998 -0.999230 -0.004338
vn -1.000000 0.000000 -0.000000
vn -1.000000 0.000000 -0.000000
vn -1.000000 0.000000 -0.000000
vn -1.000000 0.000000 -0.000000
vn 1.000000 0.000000 0.000000
vn 1.000000 0.000000 0.000000
vn 1.000000 0.000000 0.000000
vn 1.000000 0.000000 0.000000
vn -0.000000 0.000000 1.000000
vn -0.000000 0.000000 1.000000
vn -0.000000 0.000000 1.000000
vn -0.000000 0.000000 1.000000
vn 0.000000 -1.000000 0.000000
vn 0.000000 -1.000000 0.000000
vn 0.000000 -1.000000 0.000000
vn 0.000000 -1.000000 0.000000
vn 0.000000 0.000000 -1.000000
vn 0.000000 0.000000 -1.000000
vn 0.000000 0.000000 -1.000000
vn 0.000000 0.000000 -1.000000
vn 0.000000 1.000000 0.000000
vn 0.000000 1.000000 0.000000
vn 0.000000 1.000000 0.000000
vn 0.000000 1.000000 0.000000
s 1
g pCube9
usemtl initialShadingGroup
f 1/25/1 2/20/2 9/19/3 10/26/4
s 2
f 17/45/5 18/46/6 19/47/7 20/48/8
s off
f 11/75/9 12/76/10 8/77/11 7/78/12
f 21/51/13 22/52/14 23/53/15 24/54/16
s 3
f 23/1/17 22/2/18 25/3/19 26/4/20
s 4
f 21/10/21 24/11/22 27/12/23 28/13/24
f 28/13/24 27/12/23 17/16/25 20/17/26
s 3
f 26/4/20 25/3/19 19/5/27 18/6/28
s 1
f 10/26/4 9/19/3 13/71/29 14/72/30
f 9/19/3 4/23/31 15/73/32 13/71/29
f 4/23/31 3/29/33 16/74/34 15/73/32
f 3/29/33 10/26/4 14/72/30 16/74/34
s off
f 29/62/35 30/61/36 31/50/37 32/49/38
f 6/80/39 5/79/40 20/85/41 19/86/42
f 7/78/43 8/77/44 22/82/45 21/83/46
f 34/21/47 42/34/48 36/90/49
f 8/77/50 12/76/51 25/81/52 22/82/53
f 37/22/54 34/21/55 36/90/56 38/88/57
f 33/28/58 39/27/59 40/89/60 35/91/61
f 11/75/62 7/78/63 21/83/64 28/84/65
f 39/27/66 29/30/67 32/94/68 40/89/69
f 5/79/70 11/75/71 28/84/72 20/85/73
f 12/76/74 6/80/75 19/86/76 25/81/77
f 30/24/78 37/22/79 38/88/80 31/87/81
f 3/29/82 4/23/83 30/61/84 29/62/85
s 2
f 18/46/6 17/45/5 32/49/86 31/50/87
s 5
f 9/19/88 2/20/89 34/21/90 37/22/91
s 3
f 23/1/17 26/4/20 38/7/92 36/8/93
s 6
f 1/25/94 10/26/95 39/27/96 33/28/97
s 4
f 27/12/23 24/11/22 35/14/98 40/15/99
s 6
f 10/26/95 3/29/100 29/30/101 39/27/96
s 4
f 17/16/25 27/12/23 40/15/99 32/18/102
s 5
f 4/23/103 9/19/88 37/22/91 30/24/104
s 3
f 26/4/20 18/6/28 31/9/105 38/7/92
s off
f 41/31/106 33/28/107 35/91/108
f 44/66/109 43/65/110 45/92/111 46/93/112
f 33/28/113 41/31/114 45/32/115 43/33/116
f 42/34/117 34/21/118 44/35/119 46/36/120
f 2/63/121 1/64/122 43/65/123 44/66/124
f 24/54/125 23/53/126 46/55/127 45/56/128
f 41/59/129 35/60/130 24/54/131 45/56/132
f 36/57/133 42/58/134 46/55/135 23/53/136
f 11/75/137 5/79/138 6/80/139 12/76/140
f 47/40/141 48/39/142 49/44/143 50/43/144
f 13/37/145 15/38/146 48/39/147 47/40/148
f 15/67/149 16/68/150 49/44/151 48/39/152
f 16/41/153 14/42/154 50/43/155 49/44/156
f 14/69/157 13/70/158 47/40/159 50/43/160
