# This file uses centimeters as units for non-parametric coordinates.

mtllib Window.mtl
g default
v 6.295004 21.202798 8.155759
v 6.295004 21.202798 5.091433
v 6.295004 28.092473 8.155759
v 6.295004 28.092473 5.091433
v 5.322651 28.092473 8.155759
v 5.322651 28.092473 5.091433
v 5.322651 21.202798 8.155759
v 5.322651 21.202798 5.091433
v 6.295004 21.585936 7.832849
v 6.295004 21.585936 5.414343
v 6.295004 27.709336 5.414343
v 6.295004 27.709336 7.832849
v 6.295004 27.707994 8.155759
v 6.295004 27.707994 5.091433
v 5.322651 27.608439 8.155759
v 5.322651 27.608439 5.091433
v 6.894381 27.709336 5.414343
v 6.894381 27.707994 5.091433
v 6.894381 28.092473 5.091433
v 6.894381 28.092473 8.155759
v 6.894381 27.709336 7.832849
v 6.894381 27.707994 8.155759
v 6.192039 21.585936 7.832849
v 6.192039 21.585936 5.414343
v 6.192039 27.709336 5.414343
v 6.192039 27.709336 7.832849
v 6.192039 27.709336 6.714942
v 6.192039 21.585936 6.714942
v 6.192039 27.709336 6.529605
v 6.192039 21.585936 6.529605
v 6.192039 24.647636 7.832849
v 6.192039 24.647636 6.714942
v 6.192039 24.647636 6.529605
v 6.192039 24.647636 5.414343
v 6.192039 24.829492 7.832849
v 6.192039 24.829492 6.714942
v 6.192039 24.829492 6.529605
v 6.192039 24.829492 5.414343
v 6.279930 27.709336 6.714942
v 6.279930 24.829492 6.714942
v 6.279930 24.829492 6.529605
v 6.279930 27.709336 6.529605
v 6.279930 24.647636 6.714942
v 6.279930 24.647636 6.529605
v 6.279930 21.585936 6.714942
v 6.279930 21.585936 6.529605
v 6.279930 24.647636 7.832849
v 6.279930 24.829492 7.832849
v 6.279930 24.829492 5.414343
v 6.279930 24.647636 5.414343
vt 0.270898 0.606077
vt 0.355879 0.606077
vt 0.355879 0.642422
vt 0.270898 0.642422
vt 0.270898 0.079303
vt 0.355879 0.079303
vt 0.225305 0.642422
vt 0.225305 0.606077
vt 0.607126 0.079303
vt 0.687628 0.079303
vt 0.687628 0.606077
vt 0.607126 0.606077
vt 0.687628 0.642422
vt 0.607126 0.642422
vt 0.740681 0.606077
vt 0.740681 0.642422
vt 0.790123 0.001992
vt 0.790123 0.498034
vt 0.781782 0.498034
vt 0.781782 0.264745
vt 0.781782 0.250013
vt 0.781782 0.001992
vt 0.797144 0.498034
vt 0.797144 0.001992
vt 0.805485 0.001992
vt 0.805485 0.250013
vt 0.805485 0.264745
vt 0.805485 0.498034
vt 0.043608 0.897151
vt 0.043608 0.663862
vt 0.050728 0.663862
vt 0.050728 0.897151
vt 0.037563 0.663862
vt 0.037563 0.897151
vt 0.030443 0.897151
vt 0.030443 0.663862
vt 0.406962 0.736170
vt 0.406962 0.984191
vt 0.399415 0.984191
vt 0.399415 0.736170
vt 0.276072 0.707073
vt 0.276072 0.955093
vt 0.268504 0.955093
vt 0.268504 0.707073
vt 0.069364 0.915815
vt 0.069364 0.901084
vt 0.076484 0.901084
vt 0.076484 0.915815
vt 0.089926 0.901084
vt 0.089926 0.915815
vt 0.082806 0.915815
vt 0.082806 0.901084
vt 0.687628 0.892687
vt 0.607126 0.892687
vt 0.740681 0.892687
vt 0.355879 0.002110
vt 0.607126 0.002110
vt 0.833946 0.865898
vt 0.833946 0.892687
vt 0.781546 0.892687
vt 0.781546 0.865898
vt 0.833946 0.669944
vt 0.781546 0.669944
vt 0.842287 0.669944
vt 0.842287 0.760497
vt 0.842287 0.775511
vt 0.842287 0.865898
vt 0.833946 0.642422
vt 0.781546 0.642422
vt 0.016058 0.859779
vt 0.016058 0.663862
vt 0.024399 0.663862
vt 0.024399 0.754206
vt 0.024399 0.769220
vt 0.024399 0.859779
vt 0.049600 0.901084
vt 0.049600 0.916098
vt 0.042480 0.916098
vt 0.042480 0.901084
vt 0.055922 0.916098
vt 0.055922 0.901084
vt 0.063042 0.901084
vt 0.063042 0.916098
vt 0.002893 0.754421
vt 0.002893 0.663862
vt 0.010012 0.663862
vt 0.010012 0.754421
vt 0.009083 0.758353
vt 0.009083 0.848912
vt 0.001963 0.848912
vt 0.001963 0.758353
vt 0.022716 0.863712
vt 0.022716 0.954056
vt 0.015597 0.954056
vt 0.015597 0.863712
vt 0.029038 0.991428
vt 0.029038 0.901084
vt 0.036158 0.901084
vt 0.036158 0.991428
vt 0.153377 0.983324
vt 0.153377 0.750035
vt 0.243722 0.750035
vt 0.243722 0.983324
vt 0.017298 0.079303
vt 0.239374 0.106170
vt 0.043456 0.106170
vt 0.239374 0.606077
vt 0.043456 0.602157
vt 0.017298 0.602157
vt 0.056773 0.663862
vt 0.147332 0.663862
vt 0.147332 0.897151
vt 0.056773 0.897151
vt 0.877959 0.768419
vt 0.877959 0.535130
vt 0.892973 0.535130
vt 0.892973 0.768419
vt 0.877959 0.520398
vt 0.892973 0.520398
vt 0.787400 0.520398
vt 0.787400 0.535130
vt 0.877959 0.272377
vt 0.892973 0.272377
vt 0.983318 0.535130
vt 0.983318 0.520398
vt 0.503072 0.984191
vt 0.503072 0.736170
vt 0.372185 0.955093
vt 0.372185 0.707073
vn 1.000000 0.000000 0.000000
vn 1.000000 0.000000 0.000000
vn 1.000000 0.000000 0.000000
vn 1.000000 0.000000 0.000000
vn 0.000000 1.000000 0.000000
vn 0.000000 1.000000 0.000000
vn 0.000000 1.000000 0.000000
vn 0.000000 1.000000 0.000000
vn -1.000000 0.000000 -0.000000
vn -1.000000 0.000000 -0.000000
vn -1.000000 0.000000 -0.000000
vn -1.000000 0.000000 -0.000000
vn 0.000000 -1.000000 0.000000
vn 0.000000 -1.000000 0.000000
vn 0.000000 -1.000000 0.000000
vn 0.000000 -1.000000 0.000000
vn 0.000000 0.000000 -1.000000
vn 0.000000 0.000000 -1.000000
vn 0.000000 0.000000 -1.000000
vn 0.000000 0.000000 -1.000000
vn -0.000000 0.000000 1.000000
vn -0.000000 0.000000 1.000000
vn -0.000000 0.000000 1.000000
vn -0.000000 0.000000 1.000000
vn 1.000000 0.000000 0.000000
vn 1.000000 0.000000 -0.000000
vn 1.000000 0.000000 -0.000000
vn 1.000000 0.000000 0.000000
vn 1.000000 0.000000 0.000000
vn 1.000000 0.000000 0.000001
vn 1.000000 0.000000 0.000000
vn 1.000000 0.000000 -0.000000
vn 1.000000 0.000000 -0.000000
vn 1.000000 0.000000 0.000000
vn 1.000000 0.000000 0.000000
vn 1.000000 0.000000 -0.000001
vn 1.000000 0.000000 -0.000000
vn 1.000000 0.000000 -0.000000
vn -0.000000 0.000000 1.000000
vn -0.000000 0.000000 1.000000
vn 0.000000 0.000000 -1.000000
vn 0.000000 0.000000 -1.000000
vn -1.000000 0.000000 -0.000000
vn -1.000000 0.000000 -0.000000
vn -0.000000 -1.000000 0.000425
vn -0.000000 -0.999991 0.004157
vn -0.000000 -0.999991 0.004157
vn -0.000000 -1.000000 0.000490
vn 0.000000 0.000000 -1.000000
vn 0.000000 0.000000 -1.000000
vn 0.000000 1.000000 0.000000
vn 0.000000 1.000000 0.000000
vn -0.000000 -1.000000 -0.000425
vn 0.000000 -1.000000 -0.000490
vn -0.000000 0.000000 1.000000
vn -0.000000 0.000000 1.000000
vn 0.000000 -0.999991 -0.004157
vn 0.000000 -0.999991 -0.004157
vn -0.000001 1.000000 -0.000000
vn -0.000001 1.000000 -0.000000
vn -0.000001 1.000000 -0.000000
vn -0.000001 1.000000 -0.000000
vn -0.000001 1.000000 -0.000000
vn -0.000001 1.000000 -0.000000
vn -0.000000 0.000000 1.000000
vn -0.000000 0.000000 1.000000
vn -0.000000 0.000000 1.000000
vn -0.000000 0.000000 1.000000
vn -0.000000 0.000000 1.000000
vn -0.000000 0.000000 1.000000
vn -0.000001 -1.000000 -0.000000
vn -0.000001 -1.000000 -0.000000
vn -0.000001 -1.000000 -0.000000
vn -0.000001 -1.000000 -0.000000
vn 0.000000 0.000000 -1.000000
vn 0.000000 0.000000 -1.000000
vn 0.000000 0.000000 -1.000000
vn 0.000000 0.000000 -1.000000
vn 0.000000 0.000000 -1.000000
vn 0.000000 0.000000 -1.000000
vn 1.000000 0.000000 0.000000
vn 1.000000 0.000000 0.000000
vn 1.000000 0.000000 0.000000
vn 1.000000 0.000000 0.000000
vn 1.000000 0.000000 0.000000
vn 1.000000 0.000000 0.000000
vn 1.000000 0.000000 0.000000
vn 1.000000 0.000000 0.000000
vn 1.000000 0.000000 0.000000
vn 1.000000 0.000000 0.000000
vn 1.000000 0.000000 0.000000
vn 1.000000 0.000000 0.000000
vn 1.000000 0.000000 0.000000
vn 1.000000 0.000000 0.000000
vn 1.000000 0.000000 0.000000
vn 1.000000 0.000000 0.000000
vn 1.000000 0.000000 0.000000
vn 1.000000 0.000000 0.000000
vn 1.000000 0.000000 0.000000
vn 1.000000 0.000000 0.000000
vn 1.000000 0.000000 0.000000
vn 1.000000 0.000000 0.000000
vn 1.000000 0.000000 0.000000
vn 1.000000 0.000000 0.000000
vn -0.000000 0.000000 1.000000
vn -0.000000 0.000000 1.000000
vn -0.000000 0.000000 1.000000
vn -0.000000 0.000000 1.000000
vn 0.000000 0.000000 -1.000000
vn 0.000000 0.000000 -1.000000
vn 0.000000 0.000000 -1.000000
vn 0.000000 0.000000 -1.000000
vn 0.000000 1.000000 0.000000
vn 0.000000 1.000000 0.000000
vn 0.000000 1.000000 0.000000
vn 0.000000 1.000000 0.000000
vn -0.000000 0.000000 1.000000
vn -0.000000 0.000000 1.000000
vn -0.000000 0.000000 1.000000
vn -0.000000 0.000000 1.000000
vn 0.000000 -1.000000 0.000000
vn 0.000000 -1.000000 0.000000
vn 0.000000 -1.000000 0.000000
vn 0.000000 -1.000000 0.000000
vn 0.000000 0.000000 -1.000000
vn 0.000000 0.000000 -1.000000
vn 0.000000 0.000000 -1.000000
vn 0.000000 0.000000 -1.000000
vn 0.000000 -1.000000 0.000000
vn 0.000000 -1.000000 0.000000
vn 0.000000 -1.000000 0.000000
vn 0.000000 -1.000000 0.000000
vn 0.000000 1.000000 0.000000
vn 0.000000 1.000000 0.000000
vn 0.000000 1.000000 0.000000
vn 0.000000 1.000000 0.000000
vn -0.000000 0.000000 1.000000
vn -0.000000 0.000000 1.000000
vn -0.000000 0.000000 1.000000
vn -0.000000 0.000000 1.000000
vn 0.000000 1.000000 0.000000
vn 0.000000 1.000000 0.000000
vn 0.000000 1.000000 0.000000
vn 0.000000 1.000000 0.000000
vn -0.000000 -1.000000 0.000000
vn -0.000000 -1.000000 0.000000
vn -0.000000 -1.000000 0.000000
vn -0.000000 -1.000000 0.000000
vn 0.000000 0.000000 -1.000000
vn 0.000000 0.000000 -1.000000
vn 0.000000 0.000000 -1.000000
vn 0.000000 0.000000 -1.000000
s off
g pCube19
usemtl initialShadingGroup
f 29/100/1 37/101/2 38/102/3 25/103/4
s 1
f 3/13/5 4/53/6 6/54/7 5/14/8
s 2
f 15/12/9 16/2/10 8/6/11 7/9/12
s off
f 7/9/13 8/6/14 2/56/15 1/57/16
s 3
f 14/1/17 16/2/18 6/3/19 4/4/20
s 4
f 7/9/21 1/10/22 13/11/23 15/12/24
s 5
f 1/104/25 2/5/26 10/105/27 9/106/28
s 6
f 17/61/29 18/60/30 19/55/31
f 19/55/31 20/16/32 21/63/33 17/61/29
s 5
f 12/108/34 13/109/35 1/104/25 9/106/28
s 6
f 20/16/32 22/69/36 21/63/33
s 5
f 2/5/26 14/1/37 11/107/38 10/105/27
s 4
f 15/12/24 13/11/23 3/13/39 5/14/40
s 3
f 2/5/41 8/6/42 16/2/18 14/1/17
s 2
f 5/14/43 6/3/44 16/2/10 15/12/9
s 7
f 11/58/45 14/59/46 18/60/47 17/61/48
s 3
f 14/1/17 4/4/20 19/7/49 18/8/50
s 1
f 4/53/6 3/13/5 20/16/51 19/55/52
s 7
f 12/62/53 11/58/45 17/61/48 21/63/54
s 4
f 3/13/39 13/11/23 22/15/55 20/16/56
s 7
f 13/68/57 12/62/53 21/63/54 22/69/58
s off
f 9/70/59 10/71/60 24/72/61 30/73/62 28/74/63 23/75/64
f 10/17/65 11/18/66 25/19/67 38/20/68 34/21/69 24/22/70
s 7
f 11/58/45 12/62/53 26/64/71 27/65/72 29/66/73 25/67/74
s off
f 12/23/75 9/24/76 23/25/77 31/26/78 35/27/79 26/28/80
f 35/110/81 36/111/82 27/112/83 26/113/84
s 8
f 39/114/85 40/115/86 41/116/87 42/117/88
s off
f 23/126/89 28/38/90 32/37/91 31/127/92
s 8
f 44/119/93 43/118/94 45/122/95 46/123/96
s off
f 34/128/97 33/42/98 30/41/99 24/129/100
s 8
f 47/120/101 43/118/94 40/115/86 48/121/102
f 41/116/87 40/115/86 43/118/94 44/119/93
f 49/124/103 41/116/87 44/119/93 50/125/104
s off
f 27/29/105 36/30/106 40/31/107 39/32/108
f 37/33/109 29/34/110 42/35/111 41/36/112
f 29/76/113 27/77/114 39/78/115 42/79/116
f 32/37/117 28/38/118 45/39/119 43/40/120
f 28/80/121 30/81/122 46/82/123 45/83/124
f 30/41/125 33/42/126 44/43/127 46/44/128
f 31/84/129 32/85/130 43/86/131 47/87/132
f 36/88/133 35/89/134 48/90/135 40/91/136
f 35/45/137 31/46/138 47/47/139 48/48/140
f 38/92/141 37/93/142 41/94/143 49/95/144
f 33/96/145 34/97/146 50/98/147 44/99/148
f 34/49/149 38/50/150 49/51/151 50/52/152
