# This file uses centimeters as units for non-parametric coordinates.

mtllib big pin.mtl
g default
v 5.190080 38.474325 -0.140777
v 5.190080 38.539031 -0.267773
v 5.190080 38.639817 -0.368558
v 5.190080 38.766813 -0.433266
v 5.190080 38.907591 -0.455563
v 5.190080 39.048368 -0.433266
v 5.190080 39.175364 -0.368558
v 5.190080 39.276149 -0.267773
v 5.190080 39.340856 -0.140777
v 5.190080 39.363153 0.000000
v 5.190080 39.340856 0.140777
v 5.190080 39.276149 0.267773
v 5.190080 39.175364 0.368558
v 5.190080 39.048368 0.433266
v 5.190080 38.907591 0.455563
v 5.190080 38.766813 0.433266
v 5.190080 38.639817 0.368558
v 5.190080 38.539031 0.267773
v 5.190080 38.474325 0.140777
v 5.190080 38.452028 0.000000
v 7.004167 38.474325 -0.140777
v 7.004167 38.539031 -0.267773
v 7.004167 38.639817 -0.368558
v 7.004167 38.766813 -0.433266
v 7.004167 38.907591 -0.455563
v 7.004167 39.048368 -0.433266
v 7.004167 39.175364 -0.368558
v 7.004167 39.276149 -0.267773
v 7.004167 39.340856 -0.140777
v 7.004167 39.363153 0.000000
v 7.004167 39.340856 0.140777
v 7.004167 39.276149 0.267773
v 7.004167 39.175364 0.368558
v 7.004167 39.048368 0.433266
v 7.004167 38.907591 0.455563
v 7.004167 38.766813 0.433266
v 7.004167 38.639817 0.368558
v 7.004167 38.539031 0.267773
v 7.004167 38.474325 0.140777
v 7.004167 38.452028 0.000000
v 5.190080 38.907591 0.000000
v 6.716248 38.907591 0.000000
v 6.588704 39.175364 -0.368558
v 6.588704 39.048368 -0.433266
v 6.588704 38.907591 -0.455563
v 6.588704 38.766813 -0.433266
v 6.588704 38.639817 -0.368558
v 6.588704 38.539031 -0.267773
v 6.588704 38.474325 -0.140777
v 6.588704 38.452028 0.000000
v 6.588704 38.474325 0.140777
v 6.588704 38.539031 0.267773
v 6.588704 38.639817 0.368558
v 6.588704 38.766813 0.433266
v 6.588704 38.907591 0.455563
v 6.588704 39.048368 0.433266
v 6.588704 39.175364 0.368558
v 6.588704 39.276149 0.267773
v 6.588704 39.340856 0.140777
v 6.588704 39.363153 0.000000
v 6.588704 39.340856 -0.140777
v 6.588704 39.276149 -0.267773
v 6.588929 39.347149 -0.605004
v 6.588929 39.138684 -0.711224
v 6.853634 39.347149 -0.605004
v 6.853634 39.138684 -0.711224
v 6.588929 38.907593 -0.747826
v 6.853634 38.907593 -0.747826
v 6.588929 38.676499 -0.711224
v 6.853634 38.676499 -0.711224
v 6.588929 38.468031 -0.605004
v 6.853634 38.468031 -0.605004
v 6.588929 38.302587 -0.439561
v 6.853634 38.302587 -0.439561
v 6.588929 38.196369 -0.231090
v 6.853634 38.196369 -0.231090
v 6.588929 38.159767 0.000000
v 6.853634 38.159767 0.000000
v 6.588929 38.196369 0.231090
v 6.853634 38.196369 0.231090
v 6.588929 38.302587 0.439561
v 6.853634 38.302587 0.439561
v 6.588929 38.468031 0.605004
v 6.853634 38.468031 0.605004
v 6.588929 38.676496 0.711224
v 6.853634 38.676496 0.711224
v 6.588929 38.907591 0.747826
v 6.853634 38.907591 0.747826
v 6.588929 39.138684 0.711224
v 6.853634 39.138684 0.711224
v 6.588929 39.347149 0.605004
v 6.853634 39.347149 0.605004
v 6.588929 39.512593 0.439561
v 6.853634 39.512593 0.439561
v 6.588929 39.618812 0.231090
v 6.853634 39.618812 0.231090
v 6.588929 39.655412 0.000000
v 6.853634 39.655412 0.000000
v 6.588929 39.618812 -0.231090
v 6.853634 39.618812 -0.231090
v 6.588929 39.512593 -0.439561
v 6.853634 39.512593 -0.439561
v 6.710002 39.191795 0.092344
v 6.710002 39.149350 0.175648
v 6.710002 39.083239 0.241759
v 6.710002 38.999935 0.284204
v 6.710002 38.907591 0.298830
v 6.710002 38.815247 0.284204
v 6.710002 38.731943 0.241759
v 6.710002 38.665831 0.175648
v 6.710002 38.623387 0.092344
v 6.710002 38.608761 0.000000
v 6.710002 38.623387 -0.092344
v 6.710002 38.665831 -0.175648
v 6.710002 38.731943 -0.241759
v 6.710002 38.815247 -0.284205
v 6.710002 38.907591 -0.298830
v 6.710002 38.999935 -0.284205
v 6.710002 39.083239 -0.241759
v 6.710002 39.149350 -0.175648
v 6.710002 39.191795 -0.092344
v 6.710002 39.206420 0.000000
vt 0.500296 0.453948
vt 0.538346 0.453948
vt 0.538346 0.686327
vt 0.500296 0.686327
vt 0.568542 0.453948
vt 0.568542 0.686327
vt 0.458118 0.453948
vt 0.458118 0.686327
vt 0.415940 0.453948
vt 0.415940 0.686327
vt 0.377890 0.453948
vt 0.377890 0.686327
vt 0.347693 0.453948
vt 0.347693 0.686327
vt 0.032188 0.690318
vt 0.070238 0.690318
vt 0.070238 0.922696
vt 0.032188 0.922696
vt 0.112417 0.690318
vt 0.112417 0.922696
vt 0.001992 0.690318
vt 0.001992 0.922696
vt 0.154595 0.690318
vt 0.154595 0.922696
vt 0.192645 0.690318
vt 0.192645 0.922696
vt 0.222841 0.690318
vt 0.222841 0.922696
vt 0.912348 0.113871
vt 0.912348 0.051411
vt 0.956328 0.051411
vt 0.956328 0.113871
vt 0.912348 0.001842
vt 0.956328 0.001842
vt 0.912348 0.183108
vt 0.956328 0.183108
vt 0.912348 0.252346
vt 0.956328 0.252346
vt 0.912348 0.314806
vt 0.956328 0.314806
vt 0.912348 0.364375
vt 0.956328 0.364375
vt 0.954028 0.480395
vt 0.954028 0.417935
vt 0.998008 0.417935
vt 0.998008 0.480395
vt 0.954028 0.368366
vt 0.998008 0.368366
vt 0.954028 0.549633
vt 0.998008 0.549633
vt 0.954028 0.618870
vt 0.998008 0.618870
vt 0.954028 0.681330
vt 0.998008 0.681330
vt 0.954028 0.730899
vt 0.998008 0.730899
vt 0.921825 0.510213
vt 0.941212 0.548262
vt 0.811400 0.590441
vt 0.947893 0.590441
vt 0.891629 0.480016
vt 0.941212 0.632619
vt 0.853579 0.460629
vt 0.921825 0.670669
vt 0.811400 0.453948
vt 0.891629 0.700865
vt 0.769222 0.460629
vt 0.853579 0.720252
vt 0.731173 0.480016
vt 0.811400 0.726933
vt 0.700976 0.510213
vt 0.769222 0.720252
vt 0.681589 0.548262
vt 0.731173 0.700865
vt 0.674909 0.590441
vt 0.700976 0.670669
vt 0.681589 0.632619
vt 0.311199 0.253567
vt 0.298482 0.278526
vt 0.226048 0.225899
vt 0.355860 0.268078
vt 0.336473 0.306127
vt 0.278675 0.298333
vt 0.315581 0.225899
vt 0.439139 0.295137
vt 0.407315 0.357597
vt 0.306277 0.336324
vt 0.362540 0.225899
vt 0.253716 0.311050
vt 0.311199 0.198232
vt 0.450105 0.225899
vt 0.357746 0.407166
vt 0.268227 0.355711
vt 0.355860 0.183721
vt 0.226048 0.315433
vt 0.298482 0.173273
vt 0.439139 0.156662
vt 0.295286 0.438991
vt 0.226048 0.362392
vt 0.336473 0.145671
vt 0.198381 0.311050
vt 0.278675 0.153465
vt 0.407315 0.094202
vt 0.226048 0.449957
vt 0.183870 0.355711
vt 0.306277 0.115475
vt 0.173422 0.298333
vt 0.253716 0.140748
vt 0.357746 0.044633
vt 0.156810 0.438991
vt 0.145820 0.336324
vt 0.268227 0.096088
vt 0.153614 0.278526
vt 0.226048 0.136366
vt 0.295287 0.012808
vt 0.094351 0.407166
vt 0.115624 0.306127
vt 0.226048 0.089407
vt 0.140897 0.253567
vt 0.198381 0.140748
vt 0.226048 0.001842
vt 0.044782 0.357597
vt 0.096237 0.268078
vt 0.183870 0.096088
vt 0.136516 0.225899
vt 0.173422 0.153465
vt 0.156810 0.012808
vt 0.012958 0.295137
vt 0.089557 0.225899
vt 0.145820 0.115475
vt 0.140897 0.198232
vt 0.153614 0.173273
vt 0.094351 0.044633
vt 0.001992 0.225899
vt 0.096237 0.183721
vt 0.115624 0.145671
vt 0.044782 0.094202
vt 0.012958 0.156662
vt 0.638171 0.096088
vt 0.600121 0.115475
vt 0.548652 0.044633
vt 0.611111 0.012808
vt 0.569925 0.145671
vt 0.499083 0.094202
vt 0.680349 0.089407
vt 0.680348 0.001842
vt 0.550538 0.183721
vt 0.467259 0.156662
vt 0.722528 0.096087
vt 0.749587 0.012808
vt 0.543857 0.225899
vt 0.456293 0.225899
vt 0.760578 0.115475
vt 0.812047 0.044633
vt 0.550538 0.268078
vt 0.467259 0.295137
vt 0.790774 0.145671
vt 0.861616 0.094202
vt 0.569925 0.306127
vt 0.499083 0.357597
vt 0.810161 0.183721
vt 0.893440 0.156662
vt 0.600121 0.336324
vt 0.548652 0.407166
vt 0.816841 0.225899
vt 0.904406 0.225899
vt 0.638171 0.355711
vt 0.611111 0.438991
vt 0.810161 0.268078
vt 0.893440 0.295137
vt 0.680349 0.362392
vt 0.680349 0.449957
vt 0.790774 0.306127
vt 0.861616 0.357597
vt 0.722528 0.355711
vt 0.749588 0.438991
vt 0.760578 0.336324
vt 0.812047 0.407166
vt 0.341558 0.686327
vt 0.303509 0.686327
vt 0.303509 0.453948
vt 0.341558 0.453948
vt 0.261330 0.686327
vt 0.261330 0.453948
vt 0.219151 0.686327
vt 0.219151 0.453948
vt 0.181102 0.686327
vt 0.181102 0.453948
vt 0.230214 0.690318
vt 0.268264 0.690318
vt 0.268264 0.922696
vt 0.230214 0.922696
vt 0.310442 0.690318
vt 0.310442 0.922696
vt 0.352621 0.690318
vt 0.352621 0.922696
vt 0.390671 0.690318
vt 0.390671 0.922696
vt 0.668773 0.654884
vt 0.668773 0.717343
vt 0.624793 0.717343
vt 0.624793 0.654884
vt 0.668773 0.585647
vt 0.624793 0.585647
vt 0.668773 0.516408
vt 0.624793 0.516408
vt 0.668773 0.453948
vt 0.624793 0.453948
vt 0.574678 0.516407
vt 0.574678 0.453948
vt 0.618658 0.453948
vt 0.618658 0.516407
vt 0.574678 0.585646
vt 0.618658 0.585646
vt 0.574678 0.654884
vt 0.618658 0.654884
vt 0.574678 0.717343
vt 0.618658 0.717343
vn -0.000000 -0.951058 -0.309012
vn -0.000000 -0.809018 -0.587784
vn -0.000000 -0.809018 -0.587784
vn -0.000000 -0.951058 -0.309012
vn -0.000000 -0.587786 -0.809017
vn -0.000000 -0.587786 -0.809017
vn -0.000000 -0.309016 -0.951057
vn -0.000000 -0.309016 -0.951057
vn 0.000000 0.000000 -1.000000
vn 0.000000 0.000000 -1.000000
vn 0.000000 0.309018 -0.951056
vn 0.000000 0.309018 -0.951056
vn 0.000000 0.587786 -0.809017
vn 0.000000 0.587786 -0.809017
vn 0.000000 0.809018 -0.587783
vn 0.000000 0.809018 -0.587783
vn 0.000000 0.951058 -0.309012
vn 0.000000 0.951058 -0.309012
vn 0.000000 1.000000 0.000000
vn 0.000000 1.000000 0.000000
vn 0.000000 0.951058 0.309012
vn 0.000000 0.951058 0.309012
vn 0.000000 0.809018 0.587784
vn 0.000000 0.809018 0.587784
vn 0.000000 0.587785 0.809017
vn 0.000000 0.587785 0.809017
vn 0.000000 0.309018 0.951056
vn 0.000000 0.309018 0.951056
vn 0.000000 -0.000000 1.000000
vn 0.000000 -0.000000 1.000000
vn -0.000000 -0.309016 0.951057
vn -0.000000 -0.309016 0.951057
vn -0.000000 -0.587786 0.809017
vn -0.000000 -0.587786 0.809017
vn -0.000000 -0.809018 0.587784
vn -0.000000 -0.809018 0.587784
vn -0.000000 -0.951058 0.309012
vn -0.000000 -0.951058 0.309012
vn -0.000000 -1.000000 0.000000
vn -0.000000 -1.000000 0.000000
vn -1.000000 0.000000 0.000001
vn -1.000000 0.000000 0.000000
vn -1.000000 0.000000 0.000000
vn -1.000000 0.000000 -0.000000
vn -1.000000 0.000000 -0.000000
vn -1.000000 0.000000 0.000000
vn -1.000000 0.000000 0.000000
vn -1.000000 0.000000 0.000001
vn -1.000000 0.000000 0.000000
vn -1.000000 0.000000 -0.000001
vn -1.000000 0.000000 0.000000
vn -1.000000 0.000000 0.000001
vn -1.000000 0.000000 0.000000
vn -1.000000 0.000000 -0.000000
vn -1.000000 0.000000 0.000000
vn -1.000000 0.000000 0.000000
vn -1.000000 0.000000 0.000000
vn -1.000000 0.000000 0.000000
vn -1.000000 0.000000 -0.000001
vn -1.000000 0.000000 -0.000000
vn -1.000000 0.000000 -0.000000
vn 0.659683 0.714762 0.232236
vn 0.659681 0.608014 0.441746
vn 1.000000 0.000000 -0.000000
vn 0.659683 0.441747 0.608012
vn 0.659682 0.232239 0.714762
vn 0.659682 -0.000000 0.751545
vn 0.659681 -0.232241 0.714762
vn 0.659682 -0.441748 0.608013
vn 0.659680 -0.608015 0.441746
vn 0.659680 -0.714765 0.232236
vn 0.659681 -0.751545 -0.000000
vn 0.659680 -0.714765 -0.232236
vn 0.659680 -0.608015 -0.441747
vn 0.659681 -0.441747 -0.608013
vn 0.659681 -0.232241 -0.714762
vn 0.659682 -0.000000 -0.751545
vn 0.659682 0.232239 -0.714762
vn 0.659682 0.441747 -0.608012
vn 0.659681 0.608014 -0.441746
vn 0.659683 0.714762 -0.232236
vn 0.659682 0.751545 -0.000000
vn 0.000000 0.309020 -0.951056
vn 0.000000 0.587789 -0.809014
vn 0.000000 0.587789 -0.809014
vn 0.000000 0.309020 -0.951056
vn 0.000000 0.000000 -1.000000
vn 0.000000 0.000000 -1.000000
vn -0.000000 -0.309015 -0.951057
vn -0.000000 -0.309015 -0.951057
vn -0.000000 -0.587786 -0.809016
vn -0.000000 -0.587786 -0.809016
vn -0.000000 -0.809019 -0.587782
vn -0.000000 -0.809019 -0.587782
vn -0.000000 -0.951058 -0.309012
vn -0.000000 -0.951058 -0.309012
vn -0.000000 -1.000000 0.000000
vn -0.000000 -1.000000 0.000000
vn -0.000000 -0.951058 0.309012
vn -0.000000 -0.951058 0.309012
vn -0.000000 -0.809019 0.587782
vn -0.000000 -0.809019 0.587782
vn -0.000000 -0.587789 0.809015
vn -0.000000 -0.587789 0.809015
vn -0.000000 -0.309017 0.951057
vn -0.000000 -0.309017 0.951057
vn -0.000000 -0.000000 1.000000
vn -0.000000 -0.000000 1.000000
vn 0.000000 0.309018 0.951056
vn 0.000000 0.309018 0.951056
vn 0.000000 0.587789 0.809014
vn 0.000000 0.587789 0.809014
vn 0.000000 0.809019 0.587783
vn 0.000000 0.809019 0.587783
vn 0.000000 0.951058 0.309011
vn 0.000000 0.951058 0.309011
vn 0.000000 1.000000 0.000000
vn 0.000000 1.000000 0.000000
vn 0.000000 0.951058 -0.309011
vn 0.000000 0.951058 -0.309011
vn 0.000000 0.809019 -0.587782
vn 0.000000 0.809019 -0.587782
vn -1.000000 0.000238 -0.000732
vn -1.000000 0.000453 -0.000623
vn -1.000000 0.000453 -0.000623
vn -1.000000 0.000238 -0.000732
vn 0.999869 -0.009502 0.013081
vn 0.999869 -0.004995 0.015375
vn 0.889008 0.141497 -0.435480
vn 0.889008 0.269143 -0.370442
vn -1.000000 -0.000000 -0.000770
vn -1.000000 0.000000 -0.000770
vn 0.999869 -0.000000 0.016165
vn 0.889008 0.000000 -0.457892
vn -1.000000 -0.000238 -0.000732
vn -1.000000 -0.000238 -0.000732
vn 0.999869 0.004995 0.015373
vn 0.889008 -0.141496 -0.435481
vn -1.000000 -0.000453 -0.000623
vn -1.000000 -0.000453 -0.000623
vn 0.999869 0.009502 0.013079
vn 0.889008 -0.269142 -0.370442
vn -1.000000 -0.000623 -0.000452
vn -1.000000 -0.000623 -0.000452
vn 0.999869 0.013076 0.009500
vn 0.889008 -0.370444 -0.269141
vn -1.000000 -0.000732 -0.000238
vn -1.000000 -0.000732 -0.000238
vn 0.999869 0.015375 0.004996
vn 0.889007 -0.435484 -0.141495
vn -1.000000 -0.000770 0.000000
vn -1.000000 -0.000770 0.000000
vn 0.999869 0.016167 0.000000
vn 0.889007 -0.457894 0.000000
vn -1.000000 -0.000732 0.000238
vn -1.000000 -0.000732 0.000238
vn 0.999869 0.015375 -0.004996
vn 0.889007 -0.435484 0.141495
vn -1.000000 -0.000623 0.000452
vn -1.000000 -0.000623 0.000452
vn 0.999869 0.013075 -0.009500
vn 0.889008 -0.370444 0.269141
vn -1.000000 -0.000453 0.000623
vn -1.000000 -0.000453 0.000623
vn 0.999869 0.009502 -0.013080
vn 0.889008 -0.269143 0.370442
vn -1.000000 -0.000238 0.000732
vn -1.000000 -0.000238 0.000732
vn 0.999869 0.004995 -0.015374
vn 0.889008 -0.141496 0.435480
vn -1.000000 0.000000 0.000770
vn -1.000000 -0.000000 0.000770
vn 0.999869 0.000000 -0.016163
vn 0.889008 -0.000000 0.457892
vn -1.000000 0.000238 0.000732
vn -1.000000 0.000238 0.000732
vn 0.999869 -0.004995 -0.015374
vn 0.889008 0.141497 0.435480
vn -1.000000 0.000453 0.000623
vn -1.000000 0.000453 0.000623
vn 0.999869 -0.009502 -0.013081
vn 0.889008 0.269143 0.370442
vn -1.000000 0.000623 0.000452
vn -1.000000 0.000623 0.000452
vn 0.999869 -0.013075 -0.009501
vn 0.889007 0.370444 0.269142
vn -1.000000 0.000732 0.000238
vn -1.000000 0.000732 0.000238
vn 0.999869 -0.015376 -0.004996
vn 0.889006 0.435484 0.141495
vn -1.000000 0.000770 -0.000000
vn -1.000000 0.000770 -0.000000
vn 0.999869 -0.016166 -0.000000
vn 0.889006 0.457895 -0.000000
vn -1.000000 0.000732 -0.000238
vn -1.000000 0.000732 -0.000238
vn 0.999869 -0.015376 0.004996
vn 0.889006 0.435484 -0.141495
vn -1.000000 0.000623 -0.000452
vn -1.000000 0.000623 -0.000452
vn 0.999869 -0.013075 0.009500
vn 0.889007 0.370444 -0.269142
s 1
g pCylinder6
usemtl lambert17SG
f 1/1/1 2/2/2 48/3/3 49/4/4
f 2/2/2 3/5/5 47/6/6 48/3/3
f 3/179/5 4/180/7 46/181/8 47/182/6
f 4/180/7 5/183/9 45/184/10 46/181/8
f 5/183/9 6/185/11 44/186/12 45/184/10
f 6/185/11 7/187/13 43/188/14 44/186/12
f 7/21/13 8/15/15 62/18/16 43/22/14
f 8/15/15 9/16/17 61/17/18 62/18/16
f 9/16/17 10/19/19 60/20/20 61/17/18
f 10/19/19 11/23/21 59/24/22 60/20/20
f 11/23/21 12/25/23 58/26/24 59/24/22
f 12/25/23 13/27/25 57/28/26 58/26/24
f 13/189/25 14/190/27 56/191/28 57/192/26
f 14/190/27 15/193/29 55/194/30 56/191/28
f 15/193/29 16/195/31 54/196/32 55/194/30
f 16/195/31 17/197/33 53/198/34 54/196/32
f 17/13/33 18/11/35 52/12/36 53/14/34
f 18/11/35 19/9/37 51/10/38 52/12/36
f 19/9/37 20/7/39 50/8/40 51/10/38
f 20/7/39 1/1/1 49/4/4 50/8/40
s 2
f 2/57/41 1/58/42 41/59/43
f 3/61/44 2/57/41 41/59/43
f 4/63/45 3/61/44 41/59/43
f 5/65/46 4/63/45 41/59/43
f 6/67/47 5/65/46 41/59/43
f 7/69/48 6/67/47 41/59/43
f 8/71/49 7/69/48 41/59/43
f 9/73/50 8/71/49 41/59/43
f 10/75/51 9/73/50 41/59/43
f 11/77/52 10/75/51 41/59/43
f 12/76/53 11/77/52 41/59/43
f 13/74/54 12/76/53 41/59/43
f 14/72/55 13/74/54 41/59/43
f 15/70/56 14/72/55 41/59/43
f 16/68/57 15/70/56 41/59/43
f 17/66/58 16/68/57 41/59/43
f 18/64/59 17/66/58 41/59/43
f 19/62/60 18/64/59 41/59/43
f 20/60/61 19/62/60 41/59/43
f 1/58/42 20/60/61 41/59/43
s 3
f 113/78/62 114/79/63 42/80/64
f 114/79/63 115/83/65 42/80/64
f 115/83/65 116/89/66 42/80/64
f 116/89/66 117/95/67 42/80/64
f 117/95/67 118/101/68 42/80/64
f 118/101/68 119/107/69 42/80/64
f 119/107/69 120/113/70 42/80/64
f 120/113/70 121/119/71 42/80/64
f 121/119/71 122/125/72 42/80/64
f 122/125/72 103/131/73 42/80/64
f 103/131/73 104/132/74 42/80/64
f 104/132/74 105/126/75 42/80/64
f 105/126/75 106/120/76 42/80/64
f 106/120/76 107/114/77 42/80/64
f 107/114/77 108/108/78 42/80/64
f 108/108/78 109/102/79 42/80/64
f 109/102/79 110/96/80 42/80/64
f 110/96/80 111/90/81 42/80/64
f 111/90/81 112/84/82 42/80/64
f 112/84/82 113/78/62 42/80/64
s 4
f 64/199/83 63/200/84 65/201/85 66/202/86
f 67/203/87 64/199/83 66/202/86 68/204/88
f 69/205/89 67/203/87 68/204/88 70/206/90
f 71/207/91 69/205/89 70/206/90 72/208/92
f 73/30/93 71/33/91 72/34/92 74/31/94
f 75/29/95 73/30/93 74/31/94 76/32/96
f 77/35/97 75/29/95 76/32/96 78/36/98
f 79/37/99 77/35/97 78/36/98 80/38/100
f 81/39/101 79/37/99 80/38/100 82/40/102
f 83/41/103 81/39/101 82/40/102 84/42/104
f 85/209/105 83/210/103 84/211/104 86/212/106
f 87/213/107 85/209/105 86/212/106 88/214/108
f 89/215/109 87/213/107 88/214/108 90/216/110
f 91/217/111 89/215/109 90/216/110 92/218/112
f 93/44/113 91/47/111 92/48/112 94/45/114
f 95/43/115 93/44/113 94/45/114 96/46/116
f 97/49/117 95/43/115 96/46/116 98/50/118
f 99/51/119 97/49/117 98/50/118 100/52/120
f 101/53/121 99/51/119 100/52/120 102/54/122
f 63/55/84 101/53/121 102/54/122 65/56/85
s 5
f 44/139/123 43/140/124 63/141/125 64/142/126
s 3
f 27/111/127 26/105/128 66/110/129 65/116/130
s 5
f 45/145/131 44/139/123 64/142/126 67/146/132
s 3
f 26/105/128 25/99/133 68/104/134 66/110/129
s 5
f 46/149/135 45/145/131 67/146/132 69/150/136
s 3
f 25/99/133 24/93/137 70/98/138 68/104/134
s 5
f 47/153/139 46/149/135 69/150/136 71/154/140
s 3
f 24/93/137 23/87/141 72/92/142 70/98/138
s 5
f 48/157/143 47/153/139 71/154/140 73/158/144
s 3
f 23/87/141 22/82/145 74/86/146 72/92/142
s 5
f 49/161/147 48/157/143 73/158/144 75/162/148
s 3
f 22/82/145 21/81/149 76/85/150 74/86/146
s 5
f 50/165/151 49/161/147 75/162/148 77/166/152
s 3
f 21/81/149 40/88/153 78/91/154 76/85/150
s 5
f 51/169/155 50/165/151 77/166/152 79/170/156
s 3
f 40/88/153 39/94/157 80/97/158 78/91/154
s 5
f 52/173/159 51/169/155 79/170/156 81/174/160
s 3
f 39/94/157 38/100/161 82/103/162 80/97/158
s 5
f 53/177/163 52/173/159 81/174/160 83/178/164
s 3
f 38/100/161 37/106/165 84/109/166 82/103/162
s 5
f 54/175/167 53/177/163 83/178/164 85/176/168
s 3
f 37/106/165 36/112/169 86/115/170 84/109/166
s 5
f 55/171/171 54/175/167 85/176/168 87/172/172
s 3
f 36/112/169 35/118/173 88/121/174 86/115/170
s 5
f 56/167/175 55/171/171 87/172/172 89/168/176
s 3
f 35/118/173 34/124/177 90/127/178 88/121/174
s 5
f 57/163/179 56/167/175 89/168/176 91/164/180
s 3
f 34/124/177 33/130/181 92/133/182 90/127/178
s 5
f 58/159/183 57/163/179 91/164/180 93/160/184
s 3
f 33/130/181 32/136/185 94/137/186 92/133/182
s 5
f 59/155/187 58/159/183 93/160/184 95/156/188
s 3
f 32/136/185 31/135/189 96/138/190 94/137/186
s 5
f 60/151/191 59/155/187 95/156/188 97/152/192
s 3
f 31/135/189 30/129/193 98/134/194 96/138/190
s 5
f 61/147/195 60/151/191 97/152/192 99/148/196
s 3
f 30/129/193 29/123/197 100/128/198 98/134/194
s 5
f 62/143/199 61/147/195 99/148/196 101/144/200
s 3
f 29/123/197 28/117/201 102/122/202 100/128/198
s 5
f 43/140/124 62/143/199 101/144/200 63/141/125
s 3
f 28/117/201 27/111/127 65/116/130 102/122/202
f 31/135/189 32/136/185 104/132/74 103/131/73
f 32/136/185 33/130/181 105/126/75 104/132/74
f 33/130/181 34/124/177 106/120/76 105/126/75
f 34/124/177 35/118/173 107/114/77 106/120/76
f 35/118/173 36/112/169 108/108/78 107/114/77
f 36/112/169 37/106/165 109/102/79 108/108/78
f 37/106/165 38/100/161 110/96/80 109/102/79
f 38/100/161 39/94/157 111/90/81 110/96/80
f 39/94/157 40/88/153 112/84/82 111/90/81
f 40/88/153 21/81/149 113/78/62 112/84/82
f 21/81/149 22/82/145 114/79/63 113/78/62
f 22/82/145 23/87/141 115/83/65 114/79/63
f 23/87/141 24/93/137 116/89/66 115/83/65
f 24/93/137 25/99/133 117/95/67 116/89/66
f 25/99/133 26/105/128 118/101/68 117/95/67
f 26/105/128 27/111/127 119/107/69 118/101/68
f 27/111/127 28/117/201 120/113/70 119/107/69
f 28/117/201 29/123/197 121/119/71 120/113/70
f 29/123/197 30/129/193 122/125/72 121/119/71
f 30/129/193 31/135/189 103/131/73 122/125/72
